<svg width="3341" height="848" viewBox="0 0 3341 848" fill="none" xmlns="http://www.w3.org/2000/svg">
<g clip-path="url(#clip0_338_7)">
<path d="M3255.33 0H85.6667C38.3543 0 0 38.3498 0 85.6566V762.344C0 809.65 38.3543 848 85.6667 848H3255.33C3302.65 848 3341 809.65 3341 762.344V85.6566C3341 38.3498 3302.65 0 3255.33 0Z" fill="#CB0000"/>
<path d="M178.707 171.313L233.686 171.984L282.63 175.336L298.721 224.274L392.587 556.787L376.495 217.57L375.154 182.71L403.314 185.391H429.462L434.156 222.933C434.826 243.715 438.178 267.179 438.178 278.575C438.178 290.642 434.156 377.123 434.156 460.251C434.156 509.189 434.156 563.491 433.485 623.826L429.462 670.083L387.223 676.787L332.915 674.776L285.312 519.916L269.891 416.676L269.22 673.435L184.741 674.776L171.332 666.731L177.366 459.581L178.707 171.313ZM741.9 242.374L739.219 605.725L731.843 653.993L710.388 671.424L642.001 678.798L516.623 666.731L498.521 648.63L485.782 621.144L488.463 505.837C488.463 455.558 489.134 409.972 490.475 369.748C489.804 301.369 490.475 232.989 492.486 229.637C492.486 226.956 496.509 215.559 503.884 204.833L512.6 183.38L618.534 173.324L694.297 182.71L731.843 197.458L741.9 242.374ZM620.546 580.921L645.353 570.865L653.399 320.14L637.307 310.754L572.943 309.413L566.908 332.207L568.249 426.732V576.899L578.977 578.91L620.546 580.921ZM772.072 180.699L908.177 176.676L979.246 179.358L999.36 180.699L991.985 277.905L938.348 274.553L942.37 671.424L823.698 672.764L829.732 436.787L832.414 273.212L767.378 267.179L772.072 180.699ZM1245.42 440.139L1166.98 178.017H1276.26L1295.71 360.363L1309.79 376.452L1337.28 178.017L1472.71 185.391L1372.81 426.732L1354.04 458.91L1360.74 674.776L1234.69 671.424L1245.42 474.329V440.139ZM1748.94 242.374L1746.26 605.725L1738.89 653.993L1717.43 671.424L1649.04 678.798L1523.67 666.731L1505.56 648.63L1492.82 621.144L1495.51 505.837C1495.51 455.558 1496.18 409.972 1497.52 369.748C1496.85 301.369 1497.52 232.989 1499.53 229.637C1499.53 226.956 1503.55 215.559 1510.93 204.833L1519.64 183.38L1625.58 173.324L1701.34 182.71L1738.89 197.458L1748.94 242.374ZM1627.59 580.921L1652.4 570.865L1660.44 320.14L1644.35 310.754L1579.99 309.413L1573.95 332.207L1575.29 426.732V576.899L1586.02 578.91L1627.59 580.921ZM1799.23 585.614L1802.58 186.062L1828.73 174.665L1909.19 179.358L1927.29 186.062L1920.58 343.603L1912.54 589.636L1939.36 625.837L1990.31 615.111L1986.29 330.195L1990.31 175.336H2054.01L2056.02 610.418L2037.92 654.664L1954.11 678.798L1833.42 662.038L1799.23 585.614ZM2081.5 180.699L2217.6 176.676L2288.67 179.358L2308.78 180.699L2301.41 277.905L2247.77 274.553L2251.79 671.424L2133.12 672.764L2139.16 436.787L2141.84 273.212L2076.8 267.179L2081.5 180.699ZM2334.26 585.614L2337.61 186.062L2363.76 174.665L2444.22 179.358L2462.32 186.062L2455.62 343.603L2447.57 589.636L2474.39 625.837L2525.35 615.111L2521.32 330.195L2525.35 175.336H2589.04L2591.05 610.418L2572.95 654.664L2489.14 678.798L2368.46 662.038L2334.26 585.614ZM2734.53 503.826L2730.51 578.91L2752.63 588.295L2773.42 584.273L2787.5 553.435L2784.15 507.178L2772.75 474.329L2753.31 473.659H2730.51L2734.53 503.826ZM2730.51 257.793L2737.21 404.609L2765.37 400.586L2790.85 379.804L2800.24 334.888L2802.92 281.927L2771.41 259.134L2752.63 256.453L2730.51 257.793ZM2784.82 671.424L2646.03 672.764L2635.3 546.061L2638.66 372.43V180.028L2765.37 178.688L2817 189.414L2859.91 202.151L2867.96 216.9L2895.44 335.559L2888.74 394.553L2873.32 424.05L2861.92 435.447L2833.09 444.162L2863.93 457.569L2880.02 470.977L2896.79 535.335L2883.38 638.575L2854.55 662.038L2784.82 671.424ZM2934.33 668.742L2932.99 436.117L2935.67 411.313L2934.33 386.508L2937.68 238.352L2943.72 180.699L3161.62 184.721L3164.97 315.447H3022.16L3019.48 399.246L3128.77 397.234V404.609L3132.12 461.592L3030.21 463.603L3033.56 562.821L3169.67 569.524V672.764L2934.33 668.742Z" fill="white"/>
</g>
<defs>
<clipPath id="clip0_338_7">
<rect width="3341" height="848" fill="white"/>
</clipPath>
</defs>
</svg>
